<svg xmlns="http://www.w3.org/2000/svg" viewBox="0 0 256 256"><defs><style>.cls-1{fill:#1d384d;}</style></defs><title>payment</title><g id="icons_without_caption" data-name="icons without caption"><g id="PAYMENT"><polygon class="cls-1" points="196.04 182.47 155.32 182.47 155.32 178.47 192.04 178.47 192.04 50.38 63.96 50.38 63.96 178.47 99.66 178.47 99.66 182.47 59.96 182.47 59.96 46.38 196.04 46.38 196.04 182.47"/><path class="cls-1" d="M181.25,96.93H74.75v-34h106.5Zm-102.5-4h98.5v-26H78.75Z"/><polygon class="cls-1" points="169.25 157.69 156.4 157.69 156.4 153.69 165.25 153.69 165.25 144.59 90.75 144.59 90.75 153.69 99.66 153.69 99.66 157.69 86.75 157.69 86.75 140.59 169.25 140.59 169.25 157.69"/><rect class="cls-1" x="88.75" y="115.97" width="78.49" height="4"/><path class="cls-1" d="M121.66,189.2a8.06,8.06,0,0,0-1.52-4.7,8.08,8.08,0,1,0-13.12,0,8.08,8.08,0,1,0,14.64,4.7Zm-13.11-6.31a5.92,5.92,0,1,1,10.07,0,8,8,0,0,0-10.07,0Zm1.46,1.6a5.86,5.86,0,0,1,7.15,0,5.86,5.86,0,0,1-7.15,0Zm-2.35,4.7a5.93,5.93,0,0,1,.89-3.1,8,8,0,0,0,10.07,0,5.92,5.92,0,1,1-11,3.1Z"/><path class="cls-1" d="M97.66,140.59v59.69a9.35,9.35,0,0,0,9.34,9.34h41a9.35,9.35,0,0,0,9.34-9.34V140.59Zm31,65H107a5.35,5.35,0,0,1-5.34-5.34V143.16h27Zm4-62.46h10.07l0,62.46H132.71Zm20.61,57.12a5.35,5.35,0,0,1-5.34,5.34h-1.17l0-62.46h6.54Z"/></g></g></svg>