<?xml version="1.0" encoding="UTF-8"?>
<!DOCTYPE svg PUBLIC "-//W3C//DTD SVG 1.1//EN" "http://www.w3.org/Graphics/SVG/1.1/DTD/svg11.dtd">
<!-- Creator: CorelDRAW -->
<svg xmlns="http://www.w3.org/2000/svg" xml:space="preserve" width="6.82666in" height="6.82666in" style="shape-rendering:geometricPrecision; text-rendering:geometricPrecision; image-rendering:optimizeQuality; fill-rule:evenodd; clip-rule:evenodd"
viewBox="0 0 6.82666 6.82666"
 xmlns:xlink="http://www.w3.org/1999/xlink">
 <defs>
  <style type="text/css">
   <![CDATA[
    .fil1 {fill:none}
    .fil0 {fill:#212121;fill-rule:nonzero}
   ]]>
  </style>
 </defs>
 <g id="Layer_x0020_1">
  <metadata id="CorelCorpID_0Corel-Layer"/>
  <path class="fil0" d="M1.13334 2.55999l4.55998 0c0.0809134,0 0.155476,0.0290945 0.210406,0.0759488 0.0593858,0.0506535 0.0962598,0.121843 0.0962598,0.201307l0 2.75216c0,0.0794528 -0.036874,0.150646 -0.0962677,0.201299 -0.0549331,0.0468543 -0.129504,0.0759567 -0.210398,0.0759567l-4.55998 0c-0.0808976,0 -0.155469,-0.0290906 -0.210409,-0.0759528 -0.0593819,-0.0506496 -0.0962559,-0.121827 -0.0962559,-0.201303l0 -2.75216c0,-0.0794764 0.0368661,-0.150661 0.096252,-0.201311 0.0549331,-0.0468622 0.129496,-0.0759449 0.210413,-0.0759449zm4.55998 0.213339l-4.55998 0c-0.0290787,0 -0.0545276,0.00929921 -0.0720827,0.0242756 -0.0131063,0.0111772 -0.0212441,0.0252992 -0.0212441,0.0396417l0 2.75216c0,0.0143386 0.00814173,0.0284567 0.021248,0.0396339 0.017563,0.0149803 0.0430157,0.0242835 0.0720787,0.0242835l4.55998 0c0.0290591,0 0.0545039,-0.00930709 0.0720669,-0.0242874 0.0131142,-0.0111811 0.0212598,-0.0253031 0.0212598,-0.0396299l0 -2.75216c0,-0.0143346 -0.00814173,-0.0284567 -0.021252,-0.0396378 -0.0175591,-0.0149764 -0.0430039,-0.0242795 -0.0720748,-0.0242795z"/>
  <path class="fil0" d="M3.98667 4.30541l-1.04 0.600445 -0.160004 0.092378 0 -0.184461 0 -1.20089 0 -0.184465 0.160004 0.0923819 1.04 0.600445 0.159488 0.0920827 -0.159488 0.0920827zm-0.986665 0.323902l0.720504 -0.415984 -0.720504 -0.415984 0 0.831969z"/>
  <polygon class="fil0" points="3.09332,2.45333 3.09332,1.38666 3.30666,1.38666 3.30666,2.45333 "/>
  <polygon class="fil0" points="3.51999,2.45333 3.51999,1.06666 3.73333,1.06666 3.73333,2.45333 "/>
  <polygon class="fil0" points="3.94666,2.45333 3.94666,0.853331 4.16,0.853331 4.16,2.45333 "/>
  <polygon class="fil0" points="2.66667,2.45333 2.66667,1.70666 2.88,1.70666 2.88,2.45333 "/>
 </g>
 <rect class="fil1" width="6.82666" height="6.82666"/>
</svg>
